<?xml version="1.0" standalone="no"?>
<!DOCTYPE svg PUBLIC "-//W3C//DTD SVG 20010904//EN"
 "http://www.w3.org/TR/2001/REC-SVG-20010904/DTD/svg10.dtd">
<svg version="1.0" xmlns="http://www.w3.org/2000/svg"
 width="545.000000pt" height="545.000000pt" viewBox="0 0 545.000000 545.000000"
 preserveAspectRatio="xMidYMid meet">
<metadata>
Created by potrace 1.14, written by Peter Selinger 2001-2017
</metadata>
<g transform="translate(0.000000,545.000000) scale(0.100000,-0.100000)"
fill="#000000" stroke="none">
<path d="M2737 5439 c-9 -6 -54 -19 -99 -31 -46 -11 -115 -38 -154 -60 -40
-21 -100 -50 -134 -63 -34 -13 -81 -39 -104 -58 -69 -56 -102 -72 -119 -58
-12 9 -32 7 -99 -14 -129 -41 -137 -45 -207 -107 -36 -32 -69 -58 -74 -58 -4
0 -15 -17 -23 -37 -9 -21 -28 -58 -44 -83 -25 -40 -28 -57 -33 -155 -4 -60 -9
-121 -12 -135 -3 -14 -8 -45 -11 -69 -3 -24 -19 -65 -34 -90 -15 -25 -31 -62
-35 -81 -4 -19 -24 -69 -45 -110 -21 -41 -49 -114 -64 -162 -34 -113 -78 -207
-110 -237 -29 -27 -73 -107 -80 -144 -13 -71 -43 -157 -67 -192 -15 -22 -32
-64 -38 -93 -6 -29 -18 -64 -27 -77 -13 -19 -15 -37 -10 -79 4 -30 3 -89 -3
-133 -21 -163 -22 -182 -10 -225 24 -84 30 -164 17 -194 -8 -16 -7 -41 2 -86
7 -35 14 -99 16 -143 3 -48 12 -98 24 -126 10 -25 24 -76 30 -112 6 -37 23
-109 39 -160 16 -50 39 -134 51 -185 15 -68 32 -110 61 -154 21 -34 39 -66 39
-72 0 -6 10 -22 21 -36 82 -102 165 -221 176 -253 17 -48 112 -174 157 -207
19 -14 42 -38 52 -55 10 -16 38 -50 63 -75 25 -25 74 -80 109 -121 35 -43 98
-103 145 -137 45 -33 114 -94 153 -134 56 -58 90 -83 155 -115 119 -59 340
-139 432 -158 51 -10 91 -25 117 -44 22 -16 61 -34 87 -40 64 -16 144 -66 172
-106 12 -19 39 -41 59 -51 20 -9 67 -41 104 -70 l67 -54 73 0 c40 0 89 5 108
10 31 9 38 17 60 78 17 44 23 76 19 92 -14 49 -9 116 14 200 31 111 61 178 97
215 27 28 57 103 75 185 4 19 29 71 56 116 26 44 53 102 59 129 6 26 20 70 30
97 11 26 29 69 39 96 16 39 31 99 47 178 1 6 18 51 38 100 38 92 41 102 50
169 3 22 9 54 15 70 5 17 12 59 15 95 3 36 8 75 10 87 3 11 8 43 12 70 3 26
14 68 24 93 15 39 16 52 5 92 -10 39 -9 54 3 85 11 29 15 88 15 253 0 197 -2
220 -23 278 -16 47 -21 77 -17 113 4 34 0 67 -12 102 -10 29 -18 55 -19 60 -2
31 -21 89 -63 197 -27 68 -51 142 -55 164 -3 22 -15 56 -27 77 -12 20 -37 62
-55 93 -32 53 -39 72 -41 103 -1 7 -17 30 -36 52 -19 21 -35 41 -35 44 0 22
-90 154 -122 180 -22 18 -62 64 -88 102 -26 39 -67 87 -91 107 -24 20 -71 62
-104 93 -76 74 -237 195 -257 195 -9 0 -35 20 -59 45 -24 25 -47 45 -52 45
-23 0 -119 55 -172 99 -33 28 -66 51 -74 51 -29 0 0 14 36 17 52 4 199 32 259
49 28 8 60 17 70 19 107 24 373 143 451 202 81 61 96 80 89 115 -11 55 -56
109 -111 133 -57 25 -175 62 -220 68 -32 5 -90 26 -170 62 -41 19 -77 30 -125
40 -3 0 -21 4 -40 8 -19 4 -46 10 -60 14 -41 10 -335 12 -353 2z"/>
</g>
</svg>
